<svg xmlns="http://www.w3.org/2000/svg" xmlns:xlink="http://www.w3.org/1999/xlink" xmlns:inkscape="http://www.inkscape.org/namespaces/inkscape" version="1.1" width="612" height="792" viewBox="0 0 612 792">
<defs>
<clipPath id="clip_0">
<path transform="matrix(.75,0,0,.75,0,0)" d="M0 0H728.32V1056H0Z" clip-rule="evenodd"/>
</clipPath>
</defs>
<path transform="matrix(.75,0,0,.75,0,0)" d="M596.16 183.2H595.84V182.24Z" fill-rule="evenodd"/>
<path transform="matrix(.75,0,0,.75,0,0)" d="M595.84 182.24 585.92 184.32V154.56Z" fill-rule="evenodd"/>
<path transform="matrix(.75,0,0,.75,0,0)" d="M595.84 182.24V183.52L585.92 184.32Z" fill-rule="evenodd"/>
<path transform="matrix(.75,0,0,.75,0,0)" d="M585.92 154.56 460.8 195.2V165.28Z" fill-rule="evenodd"/>
<path transform="matrix(.75,0,0,.75,0,0)" d="M585.92 154.56V184.32L460.8 195.2Z" fill-rule="evenodd"/>
<path transform="matrix(.75,0,0,.75,0,0)" d="M460.8 165.28 460.16 194.88V165.44Z" fill-rule="evenodd"/>
<path transform="matrix(.75,0,0,.75,0,0)" d="M460.8 165.28V194.88H460.16Z" fill-rule="evenodd"/>
<path transform="matrix(.75,0,0,.75,0,0)" d="M460.16 165.44 458.4 195.36V165.6Z" fill-rule="evenodd"/>
<path transform="matrix(.75,0,0,.75,0,0)" d="M460.16 165.44V195.2L458.4 195.36Z" fill-rule="evenodd"/>
<path transform="matrix(.75,0,0,.75,0,0)" d="M458.4 165.6 457.6 194.88V165.6Z" fill-rule="evenodd"/>
<path transform="matrix(.75,0,0,.75,0,0)" d="M458.4 165.6V194.88H457.6Z" fill-rule="evenodd"/>
<path transform="matrix(.75,0,0,.75,0,0)" d="M457.6 165.6 455.52 195.52V165.76Z" fill-rule="evenodd"/>
<path transform="matrix(.75,0,0,.75,0,0)" d="M457.6 165.6V195.36L455.52 195.52Z" fill-rule="evenodd"/>
<path transform="matrix(.75,0,0,.75,0,0)" d="M455.52 165.76 454.72 195.52V165.92Z" fill-rule="evenodd"/>
<path transform="matrix(.75,0,0,.75,0,0)" d="M455.52 165.76V195.52H454.72Z" fill-rule="evenodd"/>
<path transform="matrix(.75,0,0,.75,0,0)" d="M454.72 165.92 312.16 207.84V178.24Z" fill-rule="evenodd"/>
<path transform="matrix(.75,0,0,.75,0,0)" d="M454.72 165.92V195.68L312.16 207.84Z" fill-rule="evenodd"/>
<path transform="matrix(.75,0,0,.75,0,0)" d="M312.16 178.24 311.36 207.84V178.24Z" fill-rule="evenodd"/>
<path transform="matrix(.75,0,0,.75,0,0)" d="M312.16 178.24V207.84H311.36Z" fill-rule="evenodd"/>
<path transform="matrix(.75,0,0,.75,0,0)" d="M311.36 178.24 163.04 220.96V191.04Z" fill-rule="evenodd"/>
<path transform="matrix(.75,0,0,.75,0,0)" d="M311.36 178.24V208.16L163.04 220.96Z" fill-rule="evenodd"/>
<path transform="matrix(.75,0,0,.75,0,0)" d="M163.04 191.04 161.28 198.24V191.2Z" fill-rule="evenodd"/>
<path transform="matrix(.75,0,0,.75,0,0)" d="M163.04 191.04V220.96L161.28 198.24Z" fill-rule="evenodd"/>
<path transform="matrix(.75,0,0,.75,0,0)" d="M80.8 198.24V200L79.68 198.24Z" fill-rule="evenodd"/>
<path transform="matrix(.75,0,0,.75,0,0)" d="M161.28 191.2 80.8 200V198.24Z" fill-rule="evenodd"/>
<path transform="matrix(.75,0,0,.75,0,0)" d="M161.28 191.2V198.24L80.8 200Z" fill-rule="evenodd"/>
<path transform="matrix(.75,0,0,.75,0,0)" stroke-width=".96" stroke-linecap="round" stroke-linejoin="round" fill="none" stroke="#000000" d="M311.52 208 316.16 263.2"/>
<path transform="matrix(.75,0,0,.75,0,0)" d="M454.72 195.52V196.48H455.52V195.52Z" fill-rule="evenodd"/>
<path transform="matrix(.75,0,0,.75,0,0)" stroke-width=".5" stroke-linecap="round" stroke-linejoin="round" fill="none" stroke="#000000" d="M454.72 195.52V196.48H455.52V195.52Z"/>
<path transform="matrix(.75,0,0,.75,0,0)" stroke-width=".96" stroke-linecap="round" stroke-linejoin="round" fill="none" stroke="#dcdcdc" d="M464.96 250.4 316.32 263.2"/>
<path transform="matrix(.75,0,0,.75,0,0)" d="M457.6 194.88V194.88H458.4Z" fill-rule="evenodd"/>
<path transform="matrix(.75,0,0,.75,0,0)" stroke-width=".5" stroke-linecap="round" stroke-linejoin="round" fill="none" stroke="#000000" d="M457.6 194.88V194.88H458.4Z"/>
<path transform="matrix(.75,0,0,.75,0,0)" d="M457.6 195.2V195.84H458.4V195.2Z" fill-rule="evenodd"/>
<path transform="matrix(.75,0,0,.75,0,0)" stroke-width=".5" stroke-linecap="round" stroke-linejoin="round" fill="none" stroke="#000000" d="M457.6 195.2V195.84H458.4V195.2Z"/>
<path transform="matrix(.75,0,0,.75,0,0)" d="M457.6 196.16V198.4H458.4V196.16Z" fill-rule="evenodd"/>
<path transform="matrix(.75,0,0,.75,0,0)" stroke-width=".5" stroke-linecap="round" stroke-linejoin="round" fill="none" stroke="#000000" d="M457.6 196.16V198.4H458.4V196.16Z"/>
<path transform="matrix(.75,0,0,.75,0,0)" d="M460 194.88V194.88H460.8Z" fill-rule="evenodd"/>
<path transform="matrix(.75,0,0,.75,0,0)" stroke-width=".5" stroke-linecap="round" stroke-linejoin="round" fill="none" stroke="#000000" d="M460 194.88V194.88H460.8Z"/>
<path transform="matrix(.75,0,0,.75,0,0)" d="M460 195.2V196.32H460.8V195.2Z" fill-rule="evenodd"/>
<path transform="matrix(.75,0,0,.75,0,0)" stroke-width=".5" stroke-linecap="round" stroke-linejoin="round" fill="none" stroke="#000000" d="M460 195.2V196.32H460.8V195.2Z"/>
<path transform="matrix(.75,0,0,.75,0,0)" d="M311.36 207.84V207.84H312.16Z" fill-rule="evenodd"/>
<path transform="matrix(.75,0,0,.75,0,0)" stroke-width=".5" stroke-linecap="round" stroke-linejoin="round" fill="none" stroke="#000000" d="M311.36 207.84V207.84H312.16Z"/>
<path transform="matrix(.75,0,0,.75,0,0)" d="M311.36 208.16V208.96H312.16V208.16Z" fill-rule="evenodd"/>
<path transform="matrix(.75,0,0,.75,0,0)" stroke-width=".5" stroke-linecap="round" stroke-linejoin="round" fill="none" stroke="#000000" d="M311.36 208.16V208.96H312.16V208.16Z"/>
<path transform="matrix(.75,0,0,.75,0,0)" d="M316 263.04V263.04H316.8Z" fill-rule="evenodd"/>
<path transform="matrix(.75,0,0,.75,0,0)" stroke-width=".5" stroke-linecap="round" stroke-linejoin="round" fill="none" stroke="#000000" d="M316 263.04V263.04H316.8Z"/>
<path transform="matrix(.75,0,0,.75,0,0)" d="M316 263.52V264.48H316.8V263.52Z" fill-rule="evenodd"/>
<path transform="matrix(.75,0,0,.75,0,0)" stroke-width=".5" stroke-linecap="round" stroke-linejoin="round" fill="none" stroke="#000000" d="M316 263.52V264.48H316.8V263.52Z"/>
<path transform="matrix(.75,0,0,.75,156.24,299.16)" stroke-width=".96" stroke-linecap="round" stroke-linejoin="round" fill="none" stroke="#00ff00" d="M0 0H5.76M21.92 21.92H27.68M43.84 43.68H49.6M65.76 65.6H71.52M44 87.52H49.6M87.68 87.52H93.44M65.76 109.44H71.52M87.68 131.36H93.44M109.44 153.28H115.36M87.68 175.2H93.44M131.36 175.2H137.28M109.44 197.12H115.36M153.28 197.12H157.92M87.68 218.88H93.44M131.36 218.88H137.28M153.28 240.8H159.04M133.92 262.72H137.28M175.2 262.72H177.92M153.28 284.64H159.04M175.2 306.56H180.96M153.28 328.48H159.04M175.2 350.4H180.96M153.28 372.32H159.04M175.2 394.08H180.96M197.12 416H202.88M175.2 437.92H180.96M0 0 4.16 4M21.92 21.92 26.08 25.92M43.84 43.68 47.84 47.84M65.76 65.6 69.76 69.76M87.68 87.52 91.68 91.68M44.48 88.16 47.84 91.68M65.76 109.44 69.76 113.6M87.68 131.36 91.68 135.52M109.44 153.28 113.6 157.28M131.36 175.2 135.52 179.2M153.28 197.12 157.44 201.12M87.68 175.2 91.68 179.2M109.44 197.12 113.6 201.12M131.36 218.88 135.52 223.04M153.28 240.8 157.44 244.96M175.2 262.72 178.4 266.08M87.68 218.88 91.68 223.04M134.4 265.76 135.52 266.88M153.28 284.64 157.44 288.8M175.2 306.56 179.36 310.72M153.28 328.48 157.44 332.48M175.2 350.4 179.36 354.4M153.28 372.32 157.44 376.32M175.2 394.08 179.36 398.24M197.12 416 201.28 420.16M175.2 437.92 179.36 442.08M0 0 .32-.32M21.92 21.92 26.08 17.76M43.84 43.68 47.84 39.68M44 87.36 47.84 83.52M65.76 65.6 69.76 61.6M65.76 109.44 69.76 105.28M87.68 87.52 91.68 83.52M87.68 131.36 91.68 127.2M87.68 175.2 91.68 171.04M109.44 153.28 113.6 149.12M87.68 218.88 91.68 214.88M109.44 197.12 113.6 192.96M131.36 175.2 135.52 171.04M131.36 218.88 135.52 214.88M153.28 197.12 156.16 194.08M133.6 260.64 135.52 258.72M153.28 240.8 157.44 236.8M153.28 284.64 157.44 280.48M175.2 262.72 177.6 260.48M153.28 328.48 157.44 324.32M175.2 306.56 179.36 302.4M153.28 372.32 157.44 368.16M175.2 350.4 179.36 346.24M175.2 394.08 179.36 390.08M175.2 437.92 179.36 433.76M197.12 416 201.28 412"/>
<path transform="matrix(.75,0,0,.75,155.76,307.91999)" stroke-width=".96" stroke-linecap="round" stroke-linejoin="round" fill="none" stroke="#000000" d="M0 0 71.84 122.24 83.04 214.72 129.76 221.92 174.24 489.6 392.96 496.32M378.24 418.24 389.92 329.12M393.12 304.64 404.64 215.36M456.96 1.92 475.36-102.08M-155.84-260-126.88-210.56-46.4-212.32"/>
<path transform="matrix(.75,0,0,.75,0,0)" stroke-width=".96" stroke-linecap="round" stroke-linejoin="round" fill="none" stroke="#989898" d="M161.28 198.24 173.12 350.88 186.56 373.92"/>
<path transform="matrix(.75,0,0,.75,0,0)" stroke-width=".96" stroke-linecap="round" stroke-linejoin="round" fill="none" stroke="#000000" d="M568.16 115.2 584.64 151.04 626.24 267.36"/>
<path transform="matrix(.75,0,0,.75,0,0)" stroke-width=".96" stroke-linecap="round" stroke-linejoin="round" fill="none" stroke="#00ff00" d="M651.04 290.4H651.2"/>
<path transform="matrix(.75,0,0,.75,493.19999,224.40001)" stroke-width=".96" stroke-linecap="round" stroke-linejoin="round" fill="none" stroke="#00ff00" d="M0 0H2.24M-6.56 8.8H-6.4M8.64 8.8H11.04M0 17.6H2.24M17.44 17.6H19.84M-6.56 26.24H-6.4M8.64 26.24H11.04M0 35.04H2.24M17.44 35.04H19.84M-6.56 43.84H-6.4M8.64 43.84H11.04M0 52.64H2.24M17.44 52.64H17.76M-6.56 61.28H-6.4M8.64 61.28H11.04M0 70.08H2.24M-6.56 78.88H-6.4M8.64 78.88H11.04M0 87.68H2.24M-6.56 96.32H-6.4M8.64 96.32H10.08M0 105.12H2.24M-6.56 113.92H-6.4M0 122.72H2.24M-6.56 131.36H-6.4M0 140.16H2.24M-6.56 148.96H-6.4M0 157.76H1.28M-6.56 166.4H-6.4M-6.56 184H-6.4M-6.56 201.44H-6.4M0 0 1.6 1.6M8.64 8.8 10.4 10.4M17.44 17.6 19.04 19.2M0 17.6 1.6 19.2M8.64 26.24 10.4 28M17.44 35.04 19.04 36.64M0 35.04 1.6 36.64M8.64 43.84 10.4 45.44M17.44 52.64 17.76 52.8M0 52.64 1.6 54.24M8.64 61.28 10.4 63.04M0 70.08 1.6 71.68M8.64 78.88 10.4 80.48M0 87.68 1.6 89.28M8.64 96.32 9.76 97.6M0 105.12 1.6 106.72M0 122.72 1.6 124.32M0 140.16 1.6 141.76M0 157.76 1.12 158.88M0 0 1.6-1.6M0 17.6 1.6 15.84M8.64 8.8 10.4 7.2M0 35.04 1.6 33.44M8.64 26.24 10.4 24.64M17.44 17.6 19.04 15.84M0 52.64 1.6 50.88M8.64 43.84 10.4 42.24M17.44 35.04 19.04 33.44M0 70.08 1.6 68.48M8.64 61.28 10.4 59.68M17.44 52.64 17.76 52.16M0 87.68 1.6 85.92M8.64 78.88 10.4 77.28M0 105.12 1.6 103.52M8.64 96.32 10.4 94.72M0 122.72 1.6 120.96M0 140.16 1.6 138.56M0 157.76 1.44 156.16"/>
<path transform="matrix(.75,0,0,.75,0,0)" stroke-width=".96" stroke-linecap="round" stroke-linejoin="round" fill="none" stroke="#000000" d="M626.24 267.36 682.88 308.64"/>
<path transform="matrix(.75,0,0,.75,0,0)" stroke-width=".96" stroke-linecap="round" stroke-linejoin="round" fill="none" stroke="#989898" d="M460.16 195.04 464.96 250.4"/>
<path transform="matrix(.75,0,0,.75,426.12,86.28)" stroke-width=".96" stroke-linecap="round" stroke-linejoin="round" fill="none" stroke="#000000" d="M0 0-516.32 35.52M28.16 68.48-405.12 105.92M-389.6 74.56-387.04 104.16M-256.64 92.96-247.2 204.16H53.12V157.6 138.4L28.16 68.48-256.64 92.96-332.32 99.52"/>
<path transform="matrix(.75,0,0,.75,0,0)" stroke-width=".96" stroke-linecap="round" stroke-linejoin="round" fill="none" stroke="#000000" d="M708.16 19.52V1036.48H19.36V19.52H708.16Z"/>
<g clip-path="url(#clip_0)">
<path transform="matrix(.75,0,0,.75,0,0)" stroke-width=".96" stroke-linecap="round" stroke-linejoin="round" fill="none" stroke="#000000" d="M727.52 .16V1055.84H0V.16H727.52Z"/>
</g>
<path transform="matrix(.75,0,0,.75,0,0)" stroke-width=".96" stroke-linecap="round" stroke-linejoin="round" fill="none" stroke="#000000" d="M163.04 220.96 160.64 191.2"/>
<path transform="matrix(.75,0,0,.75,0,0)" stroke-width=".96" stroke-linecap="round" stroke-linejoin="round" fill="none" stroke="#989898" d="M206.24 217.6 216.32 345.44M245.6 330.72 271.04 373.92"/>
<path transform="matrix(.75,0,0,.75,214.08,298.91999)" stroke-width=".96" stroke-linecap="round" stroke-linejoin="round" fill="none" stroke="#000000" d="M0 0 52.48 89.12M124.96 227.36 139.84 316.64M144 341.12 158.88 430.24M131.84 449.44 93.44 219.04 20.48 93.28"/>
<path transform="matrix(.75,0,0,.75,280.68,640.08)" stroke-width=".96" stroke-linecap="round" stroke-linejoin="round" fill="none" stroke="#000000" d="M0 0H44L4.64-235.84-68.32-361.6-108.32-429.44-123.36-454.88H-173.44L-94.72-320.64-83.52-228.16-36.8-220.96 0 0Z"/>
<text xml:space="preserve" transform="matrix(0 .03222675 -.03222675 0 0 0)" font-size="327.68" font-family="F1"><tspan y="-7488.16" x="13159.4 13398.606 13578.831 13778.716">OPEN</tspan></text>
<text xml:space="preserve" transform="matrix(0 .03222675 -.03222675 0 0 0)" font-size="327.68" font-family="F1"><tspan y="-7119.52" x="13148.2 13331.701 13508.648 13747.8549 13964.124">SPACE</tspan></text>
<text xml:space="preserve" transform="matrix(0 .03222675 -.03222675 0 0 0)" font-size="327.68" font-family="F1"><tspan y="-11949.1" x="20018.2 20257.407 20437.629 20637.514">OPEN</tspan></text>
<text xml:space="preserve" transform="matrix(0 .03222675 -.03222675 0 0 0)" font-size="327.68" font-family="F1"><tspan y="-11580.5" x="20010.9 20194.4 20371.348 20610.555 20826.823">SPACE</tspan></text>
<path transform="matrix(.75,0,0,.75,0,0)" stroke-width=".96" stroke-linecap="round" stroke-linejoin="round" fill="none" stroke="#000000" d="M320.96 319.2H321.12"/>
<text xml:space="preserve" transform="matrix(0 .03222675 -.03222675 0 0 0)" font-size="327.68" font-family="F1"><tspan y="-104.32" x="20416.6 20655.807 20872.075 21108.004 21288.227">DRAFT</tspan></text>
<path transform="matrix(.75,0,0,.75,333.24,621.6)" stroke-width=".96" stroke-linecap="round" stroke-linejoin="round" fill="none" stroke="#000000" d="M0 0H141.6M-70.08 24.64H163.2M-7.52-44.48H147.52M-14.88-89.12H153.28M-19.04-113.6H156.48M-26.4-158.24H162.24M-33.92-202.88H168M-40.48-227.36H171.2M-66.4-272H176.96M-92.48-316.48H176.96M-106.4-341.12H176.96M-132.64-385.76H176.96M-158.88-430.24H176.96M156.48-113.6 168-202.88M111.84-113.6V-202.88M89.44-113.6V-202.88"/>
<path transform="matrix(.75,0,0,.75,0,0)" stroke-width=".96" stroke-linecap="round" stroke-linejoin="round" fill="none" stroke="#000000" d="M511.52 715.2V625.92 715.2Z"/>
<path transform="matrix(.75,0,0,.75,366.96,536.4)" stroke-width=".96" stroke-linecap="round" stroke-linejoin="round" fill="none" stroke="#000000" d="M0 0V-89.28M-22.4 0V-89.28M-75.04-66.88H-22.4M66.88-66.88H120.16M-67.68-22.4H-22.4M66.88-22.4H114.4M-137.44-202.88-85.44-113.76M111.36 191.68 175.36-302.72M96.64 113.6 108.32 24.48M126.24-113.76 132-158.4M42.72-113.76V-136M87.36-180.64H132M42.72-113.76V-136M87.36-158.4V-202.88M65.12-158.4V-202.88M42.72-158.4V-202.88M20.48-158.4V-202.88M-1.92-158.4V-202.88-158.4-202.88M-24.16-158.4V-202.88M-46.4-158.4V-202.88M87.36-294.4H132M87.36-249.76H132M87.36-272.16V-316.64M65.12-272.16V-316.64M42.72-272.16V-316.64-272.16-316.64M20.48-272.16V-316.64M-1.92-272.16V-316.64-272.16-316.64M-24.16-272.16V-316.64M-46.4-272.16V-316.64M-68.8-272.16V-316.64-272.16-316.64"/>
<path transform="matrix(.75,0,0,.75,0,0)" stroke-width=".96" stroke-linecap="round" stroke-linejoin="round" fill="none" stroke="#000000" d="M343.36 374.08V319.2 374.08Z"/>
<path transform="matrix(.75,0,0,.75,274.2,280.56)" stroke-width=".96" stroke-linecap="round" stroke-linejoin="round" fill="none" stroke="#000000" d="M0 0V-54.88M22.4 0V-54.88M44.64 0V-54.88M66.88 0V-54.88M89.28 0V-54.88M111.52 0V-54.88M133.76 0V-54.88M156.16 0V-54.88M178.4 0V-54.88M200.8 0V-54.88M223.04 0V-54.88M255.68 113.6V24.48M211.04 113.6V24.48M223.04 0V-54.88M-37.28 160.48H-34.88M32.64 68.96V24.48M167.84 454.72V365.6M145.6 454.72V365.6M123.2 454.72V365.6M100.96 454.72V365.6M78.72 454.72V365.6M-50.88-129.28H-51.04"/>
<text fill="#dcdcdc" xml:space="preserve" transform="matrix(0 .030029249 -.030029249 0 0 0)" font-size="327.68" font-family="F2"><tspan y="-13494.9" x="5630.56 5889.4274 6213.8308 6462.867 6669.3059 6892.1286 6977.325">OWNER'S</tspan></text>
<text fill="#dcdcdc" xml:space="preserve" transform="matrix(0 .030029249 -.030029249 0 0 0)" font-size="327.68" font-family="F2"><tspan y="-13099.2" x="5914.24 6028.928 6212.4289 6438.5285 6681.011"> LAND</tspan></text>
<text fill="#dcdcdc" xml:space="preserve" transform="matrix(0 .030029249 -.030029249 0 0 0)" font-size="327.68" font-family="F2"><tspan y="-12699.5" x="5766.4 5989.2229 6221.8757 6336.5637 6546.2785 6664.243 6870.6818">AC 1.54</tspan></text>
<text fill="#dcdcdc" xml:space="preserve" transform="matrix(0 .030029249 -.030029249 0 0 0)" font-size="327.68" font-family="F2"><tspan y="-12300" x="5862.24 6094.893 6298.0549 6540.5378 6740.4226">CENTS</tspan></text>
<path transform="matrix(.75,0,0,.75,432.48,365.76)" stroke-width=".96" stroke-linecap="round" stroke-linejoin="round" fill="none" stroke="#000000" d="M0 0V-44.64M-22.24 0V-44.64M-44.64 0V-44.64 0-44.64M-66.88 0V-44.64M-89.28 0V-44.64 0-44.64M-111.52 0V-44.64M-133.76 0V-44.64M-156.16 0V-44.64 0-44.64M-178.4 0V-44.64M44.64 0V-44.64M-156.16 69.12V24.64M-255.68-168.48H-255.52M-278.08-66.88H-223.04M-280.8-113.76H-390.08M0 69.12V24.64M-212.8 45.28H-156.16M-44.64 113.76V69.12M-66.88 113.76V69.12M-89.28 113.76V69.12M-111.52 113.76V69.12M-133.76 113.76V69.12 113.76 69.12M-156.16 113.76V69.12M0 113.76V69.12M-22.24 113.76V69.12"/>
<text xml:space="preserve" transform="matrix(0 .03222675 -.03222675 0 0 0)" font-size="327.68" font-family="F1"><tspan y="-7629.76" x="7782.4 7982.2849 8146.1247">E14</tspan></text>
<text xml:space="preserve" transform="matrix(0 .03222675 -.03222675 0 0 0)" font-size="327.68" font-family="F1"><tspan y="-13922.7" x="7901.6 8101.485">E1</tspan></text>
<text xml:space="preserve" transform="matrix(0 .03222675 -.03222675 0 0 0)" font-size="327.68" font-family="F1"><tspan y="-7860.64" x="10523 10722.885 10886.725">E15</tspan></text>
<text xml:space="preserve" transform="matrix(0 .03222675 -.03222675 0 0 0)" font-size="327.68" font-family="F1"><tspan y="-13863" x="13300.8 13464.64">34</tspan></text>
<path transform="matrix(.75,0,0,.75,465.96003,239.40001)" stroke-width=".96" stroke-linecap="round" stroke-linejoin="round" fill="none" stroke="#ff0000" d="M0 0H-300.32V4.8 54.72H-434.72L-341.76 213.6-330.56 306.08-283.84 313.28-239.36 580.96-20.64 587.68 43.36 93.28 61.6-10.56 55.2-15.36 4.96-51.84 0-65.76V0Z"/>
<path transform="matrix(.75,0,0,.75,0,0)" stroke-width=".96" stroke-linecap="round" stroke-linejoin="round" fill="none" stroke="#000000" d="M585.92 828.8V739.68M555.84 828.8V739.68"/>
<text xml:space="preserve" transform="matrix(0 .03222675 -.03222675 0 0 0)" font-size="327.68" font-family="F1"><tspan y="-13110.9" x="18450.6 18650.485 18814.325">E44</tspan></text>
<text xml:space="preserve" transform="matrix(.0300135 -.0006285 .0006285 .0300135 366.11616 293.99919)" font-size="327.68" font-family="F2"><tspan y="0" x="0">3</tspan></text>
<text xml:space="preserve" transform="matrix(.0300135 -.0006285 .0006285 .0300135 366.11616 293.99919)" font-size="327.68" font-family="F2"><tspan y="0" x="206.4384">3</tspan></text>
<text xml:space="preserve" transform="matrix(.0300135 -.0006285 .0006285 .0300135 366.11616 293.99919)" font-size="327.68" font-family="F2"><tspan y="0" x="416.1536">'</tspan></text>
<text xml:space="preserve" transform="matrix(.0300135 -.0006285 .0006285 .0300135 366.11616 293.99919)" font-size="327.68" font-family="F2"><tspan y="0" x="504.6272"> </tspan></text>
<text xml:space="preserve" transform="matrix(.0300135 -.0006285 .0006285 .0300135 366.11616 293.99919)" font-size="327.68" font-family="F2"><tspan y="0" x="619.3152">R</tspan></text>
<text xml:space="preserve" transform="matrix(.0300135 -.0006285 .0006285 .0300135 366.11616 293.99919)" font-size="327.68" font-family="F2"><tspan y="3.2768" x="848.69119">O</tspan></text>
<text xml:space="preserve" transform="matrix(.0300135 -.0006285 .0006285 .0300135 366.11616 293.99919)" font-size="327.68" font-family="F2"><tspan y="0" x="1107.5584">A</tspan></text>
<text xml:space="preserve" transform="matrix(.0300135 -.0006285 .0006285 .0300135 366.11616 293.99919)" font-size="327.68" font-family="F2"><tspan y="0" x="1327.104">D</tspan></text>
<text xml:space="preserve" transform="matrix(0 .03222675 -.03222675 0 0 0)" font-size="327.68" font-family="F1"><tspan y="-8441.44" x="9711.2">1</tspan></text>
<text xml:space="preserve" transform="matrix(0 .03222675 -.03222675 0 0 0)" font-size="327.68" font-family="F1"><tspan y="-13110.9" x="17486.2 17794.219 17958.059">W27</tspan></text>
<text fill="#ff00ff" xml:space="preserve" transform="matrix(0 .03222675 -.03222675 0 0 0)" font-size="327.68" font-family="F1"><tspan y="-7566.4" x="9476.64">1</tspan></text>
<text fill="#ff00ff" xml:space="preserve" transform="matrix(0 .03222675 -.03222675 0 0 0)" font-size="327.68" font-family="F1"><tspan y="-10254.9" x="16216.5">8</tspan></text>
<text fill="#ffff00" xml:space="preserve" transform="matrix(0 .03222675 -.03222675 0 0 0)" font-size="327.68" font-family="F1"><tspan y="-13785" x="9469.28 11058.528">14</tspan></text>
<text fill="#ffff00" xml:space="preserve" transform="matrix(0 .03222675 -.03222675 0 0 0)" font-size="327.68" font-family="F1"><tspan y="-13874.2" x="12135.4 12656.411">56</tspan></text>
<text fill="#ffff00" xml:space="preserve" transform="matrix(0 .03222675 -.03222675 0 0 0)" font-size="327.68" font-family="F1"><tspan y="-13509.3" x="14786.6">7</tspan></text>
<text fill="#ffff00" xml:space="preserve" transform="matrix(0 .03222675 -.03222675 0 0 0)" font-size="327.68" font-family="F1"><tspan y="-13397.6" x="16186.7 16350.54">10</tspan></text>
<path transform="matrix(.75,0,0,.75,208.44,397.44)" stroke-width=".96" stroke-linecap="round" stroke-linejoin="round" fill="none" stroke="#000000" d="M0 0H.16M343.36 26.88V-17.6M373.12-11.84V-244.48M17.76-55.52H17.92M98.08-86.88V-131.36-86.88-131.36M75.68-86.88V-131.36M98.08-42.24V-86.88-42.24-86.88M75.68-42.24V-86.88"/>
<text fill="#ff00ff" xml:space="preserve" transform="matrix(0 .03222675 -.03222675 0 0 0)" font-size="327.68" font-family="F1"><tspan y="-6449.28" x="5306.24">1</tspan></text>
<text fill="#ff00ff" xml:space="preserve" transform="matrix(0 .03222675 -.03222675 0 0 0)" font-size="327.68" font-family="F1"><tspan y="-6624.32" x="6922.24">3</tspan></text>
<text xml:space="preserve" transform="matrix(0 .030029249 -.030029249 0 0 0)" font-size="327.68" font-family="F2"><tspan y="-15768.6" x="7041.12 7263.943 7463.8278 7663.7126 7893.0886 8151.9558 8374.777 8607.431 8856.468 8971.155 9121.888 9239.853 9446.291 9649.453 9760.864 9846.062 9957.473 10183.571 10439.161 10658.707">APPROACH - 40 ' ROAD</tspan></text>
<path transform="matrix(.75,0,0,.75,233.63999,156)" stroke-width=".96" stroke-linecap="round" stroke-linejoin="round" fill="none" stroke="#000000" d="M0 0 9.44 111.2M289.28 507.2V417.92M301.12-112.8 319.68-71.68 330.72-40.96 355.52 28.8 399.84 60.96"/>
<text xml:space="preserve" transform="matrix(.0109537499 .027951003 -.027951003 .0109537499 440.5218 78.84349)" font-size="327.68" font-family="F2"><tspan y="0" x="0">R</tspan></text>
<text xml:space="preserve" transform="matrix(.0109537499 .027951003 -.027951003 .0109537499 440.5218 78.84349)" font-size="327.68" font-family="F2"><tspan y="0" x="229.37599">A</tspan></text>
<text xml:space="preserve" transform="matrix(.0109537499 .027951003 -.027951003 .0109537499 440.5218 78.84349)" font-size="327.68" font-family="F2"><tspan y="0" x="452.19837">I</tspan></text>
<text xml:space="preserve" transform="matrix(.0109537499 .027951003 -.027951003 .0109537499 440.5218 78.84349)" font-size="327.68" font-family="F2"><tspan y="0" x="593.10079">L</tspan></text>
<text xml:space="preserve" transform="matrix(.0109537499 .027951003 -.027951003 .0109537499 440.5218 78.84349)" font-size="327.68" font-family="F2"><tspan y="0" x="776.60159">W</tspan></text>
<text xml:space="preserve" transform="matrix(.0109537499 .027951003 -.027951003 .0109537499 440.5218 78.84349)" font-size="327.68" font-family="F2"><tspan y="0" x="1097.728">A</tspan></text>
<text xml:space="preserve" transform="matrix(.0109537499 .027951003 -.027951003 .0109537499 440.5218 78.84349)" font-size="327.68" font-family="F2"><tspan y="0" x="1323.8273">Y</tspan></text>
<text xml:space="preserve" transform="matrix(.0109537499 .027951003 -.027951003 .0109537499 440.5218 78.84349)" font-size="327.68" font-family="F2"><tspan y="3.2768" x="1526.9889"> </tspan></text>
<text xml:space="preserve" transform="matrix(.0109537499 .027951003 -.027951003 .0109537499 440.5218 78.84349)" font-size="327.68" font-family="F2"><tspan y="0" x="1644.9537">S</tspan></text>
<text xml:space="preserve" transform="matrix(.0109537499 .027951003 -.027951003 .0109537499 440.5218 78.84349)" font-size="327.68" font-family="F2"><tspan y="3.2768" x="1867.7761">T</tspan></text>
<text xml:space="preserve" transform="matrix(.0109537499 .027951003 -.027951003 .0109537499 440.5218 78.84349)" font-size="327.68" font-family="F2"><tspan y="0" x="2070.9378">A</tspan></text>
<text xml:space="preserve" transform="matrix(.0109537499 .027951003 -.027951003 .0109537499 440.5218 78.84349)" font-size="327.68" font-family="F2"><tspan y="0" x="2293.7603">T</tspan></text>
<text xml:space="preserve" transform="matrix(.0109537499 .027951003 -.027951003 .0109537499 440.5218 78.84349)" font-size="327.68" font-family="F2"><tspan y="0" x="2493.645">I</tspan></text>
<text xml:space="preserve" transform="matrix(.0109537499 .027951003 -.027951003 .0109537499 440.5218 78.84349)" font-size="327.68" font-family="F2"><tspan y="0" x="2631.2706">O</tspan></text>
<text xml:space="preserve" transform="matrix(.0109537499 .027951003 -.027951003 .0109537499 440.5218 78.84349)" font-size="327.68" font-family="F2"><tspan y="0" x="2883.584">N</tspan></text>
<text xml:space="preserve" transform="matrix(.0109537499 .027951003 -.027951003 .0109537499 440.5218 78.84349)" font-size="327.68" font-family="F2"><tspan y="0" x="3129.344"> </tspan></text>
<text xml:space="preserve" transform="matrix(.0109537499 .027951003 -.027951003 .0109537499 440.5218 78.84349)" font-size="327.68" font-family="F2"><tspan y="0" x="3240.7552">R</tspan></text>
<text xml:space="preserve" transform="matrix(.0109537499 .027951003 -.027951003 .0109537499 440.5218 78.84349)" font-size="327.68" font-family="F2"><tspan y="0" x="3463.5777">O</tspan></text>
<text xml:space="preserve" transform="matrix(.0109537499 .027951003 -.027951003 .0109537499 440.5218 78.84349)" font-size="327.68" font-family="F2"><tspan y="0" x="3722.4449">A</tspan></text>
<text xml:space="preserve" transform="matrix(.0109537499 .027951003 -.027951003 .0109537499 440.5218 78.84349)" font-size="327.68" font-family="F2"><tspan y="0" x="3941.9906">D</tspan></text>
<text xml:space="preserve" transform="matrix(.00521325 .02956425 -.02956425 .00521325 294.9623 485.27806)" font-size="327.68" font-family="F2"><tspan y="0" x="0"> </tspan></text>
<text xml:space="preserve" transform="matrix(.00521325 .02956425 -.02956425 .00521325 294.9623 485.27806)" font-size="327.68" font-family="F2"><tspan y="0" x="117.9648">4</tspan></text>
<text xml:space="preserve" transform="matrix(.00521325 .02956425 -.02956425 .00521325 294.9623 485.27806)" font-size="327.68" font-family="F2"><tspan y="0" x="324.4032">0</tspan></text>
<text xml:space="preserve" transform="matrix(.00521325 .02956425 -.02956425 .00521325 294.9623 485.27806)" font-size="327.68" font-family="F2"><tspan y="0" x="530.8416"> </tspan></text>
<text xml:space="preserve" transform="matrix(.00521325 .02956425 -.02956425 .00521325 294.9623 485.27806)" font-size="327.68" font-family="F2"><tspan y="0" x="648.8064">'</tspan></text>
<text xml:space="preserve" transform="matrix(.00521325 .02956425 -.02956425 .00521325 294.9623 485.27806)" font-size="327.68" font-family="F2"><tspan y="0" x="734.0032"> </tspan></text>
<text xml:space="preserve" transform="matrix(.00521325 .02956425 -.02956425 .00521325 294.9623 485.27806)" font-size="327.68" font-family="F2"><tspan y="0" x="851.96798">R</tspan></text>
<text xml:space="preserve" transform="matrix(.00521325 .02956425 -.02956425 .00521325 294.9623 485.27806)" font-size="327.68" font-family="F2"><tspan y="0" x="1078.0671">O</tspan></text>
<text xml:space="preserve" transform="matrix(.00521325 .02956425 -.02956425 .00521325 294.9623 485.27806)" font-size="327.68" font-family="F2"><tspan y="0" x="1336.9343">A</tspan></text>
<text xml:space="preserve" transform="matrix(.00521325 .02956425 -.02956425 .00521325 294.9623 485.27806)" font-size="327.68" font-family="F2"><tspan y="-3.2768" x="1556.48">D</tspan></text>
<text xml:space="preserve" transform="matrix(.015465749 .025739249 -.025739249 .015465749 208.91857 320.87843)" font-size="327.68" font-family="F2"><tspan y="0" x="0"> </tspan></text>
<text xml:space="preserve" transform="matrix(.015465749 .025739249 -.025739249 .015465749 208.91857 320.87843)" font-size="327.68" font-family="F2"><tspan y="0" x="117.9648">4</tspan></text>
<text xml:space="preserve" transform="matrix(.015465749 .025739249 -.025739249 .015465749 208.91857 320.87843)" font-size="327.68" font-family="F2"><tspan y="-3.2768" x="321.1264">0</tspan></text>
<text xml:space="preserve" transform="matrix(.015465749 .025739249 -.025739249 .015465749 208.91857 320.87843)" font-size="327.68" font-family="F2"><tspan y="-3.2768" x="534.1184"> </tspan></text>
<text xml:space="preserve" transform="matrix(.015465749 .025739249 -.025739249 .015465749 208.91857 320.87843)" font-size="327.68" font-family="F2"><tspan y="3.2768" x="645.5296">'</tspan></text>
<text xml:space="preserve" transform="matrix(.015465749 .025739249 -.025739249 .015465749 208.91857 320.87843)" font-size="327.68" font-family="F2"><tspan y="0" x="737.28"> </tspan></text>
<text xml:space="preserve" transform="matrix(.015465749 .025739249 -.025739249 .015465749 208.91857 320.87843)" font-size="327.68" font-family="F2"><tspan y="0" x="851.968">R</tspan></text>
<text xml:space="preserve" transform="matrix(.015465749 .025739249 -.025739249 .015465749 208.91857 320.87843)" font-size="327.68" font-family="F2"><tspan y="0" x="1078.0673">O</tspan></text>
<text xml:space="preserve" transform="matrix(.015465749 .025739249 -.025739249 .015465749 208.91857 320.87843)" font-size="327.68" font-family="F2"><tspan y="0" x="1333.6577">A</tspan></text>
<text xml:space="preserve" transform="matrix(.015465749 .025739249 -.025739249 .015465749 208.91857 320.87843)" font-size="327.68" font-family="F2"><tspan y="0" x="1553.2034">D</tspan></text>
<text xml:space="preserve" transform="matrix(-.0037102502 .02979 -.02979 -.0037102502 464.1637 476.1543)" font-size="327.68" font-family="F2"><tspan y="0" x="0">3</tspan></text>
<text xml:space="preserve" transform="matrix(-.0037102502 .02979 -.02979 -.0037102502 464.1637 476.1543)" font-size="327.68" font-family="F2"><tspan y="-3.2768" x="209.7152">3</tspan></text>
<text xml:space="preserve" transform="matrix(-.0037102502 .02979 -.02979 -.0037102502 464.1637 476.1543)" font-size="327.68" font-family="F2"><tspan y="0" x="416.1536"> </tspan></text>
<text xml:space="preserve" transform="matrix(-.0037102502 .02979 -.02979 -.0037102502 464.1637 476.1543)" font-size="327.68" font-family="F2"><tspan y="-3.2768" x="530.8416">'</tspan></text>
<text xml:space="preserve" transform="matrix(-.0037102502 .02979 -.02979 -.0037102502 464.1637 476.1543)" font-size="327.68" font-family="F2"><tspan y="0" x="619.3152"> </tspan></text>
<text xml:space="preserve" transform="matrix(-.0037102502 .02979 -.02979 -.0037102502 464.1637 476.1543)" font-size="327.68" font-family="F2"><tspan y="0" x="737.27999">R</tspan></text>
<text xml:space="preserve" transform="matrix(-.0037102502 .02979 -.02979 -.0037102502 464.1637 476.1543)" font-size="327.68" font-family="F2"><tspan y="0" x="963.37918">O</tspan></text>
<text xml:space="preserve" transform="matrix(-.0037102502 .02979 -.02979 -.0037102502 464.1637 476.1543)" font-size="327.68" font-family="F2"><tspan y="0" x="1225.5232">A</tspan></text>
<text xml:space="preserve" transform="matrix(-.0037102502 .02979 -.02979 -.0037102502 464.1637 476.1543)" font-size="327.68" font-family="F2"><tspan y="0" x="1441.792">D</tspan></text>
<text xml:space="preserve" transform="matrix(.0300135 -.0006285 .0006285 .0300135 366.11613 379.31694)" font-size="327.68" font-family="F2"><tspan y="0" x="0">3</tspan></text>
<text xml:space="preserve" transform="matrix(.0300135 -.0006285 .0006285 .0300135 366.11613 379.31694)" font-size="327.68" font-family="F2"><tspan y="0" x="206.4384">3</tspan></text>
<text xml:space="preserve" transform="matrix(.0300135 -.0006285 .0006285 .0300135 366.11613 379.31694)" font-size="327.68" font-family="F2"><tspan y="0" x="416.1536">'</tspan></text>
<text xml:space="preserve" transform="matrix(.0300135 -.0006285 .0006285 .0300135 366.11613 379.31694)" font-size="327.68" font-family="F2"><tspan y="0" x="504.6272"> </tspan></text>
<text xml:space="preserve" transform="matrix(.0300135 -.0006285 .0006285 .0300135 366.11613 379.31694)" font-size="327.68" font-family="F2"><tspan y="0" x="619.3152">R</tspan></text>
<text xml:space="preserve" transform="matrix(.0300135 -.0006285 .0006285 .0300135 366.11613 379.31694)" font-size="327.68" font-family="F2"><tspan y="3.2768" x="848.69119">O</tspan></text>
<text xml:space="preserve" transform="matrix(.0300135 -.0006285 .0006285 .0300135 366.11613 379.31694)" font-size="327.68" font-family="F2"><tspan y="0" x="1107.5584">A</tspan></text>
<text xml:space="preserve" transform="matrix(.0300135 -.0006285 .0006285 .0300135 366.11613 379.31694)" font-size="327.68" font-family="F2"><tspan y="0" x="1327.104">D</tspan></text>
<text xml:space="preserve" transform="matrix(.0300135 -.0006285 .0006285 .0300135 366.11616 464.6347)" font-size="327.68" font-family="F2"><tspan y="0" x="0">3</tspan></text>
<text xml:space="preserve" transform="matrix(.0300135 -.0006285 .0006285 .0300135 366.11616 464.6347)" font-size="327.68" font-family="F2"><tspan y="0" x="206.4384">3</tspan></text>
<text xml:space="preserve" transform="matrix(.0300135 -.0006285 .0006285 .0300135 366.11616 464.6347)" font-size="327.68" font-family="F2"><tspan y="0" x="416.1536">'</tspan></text>
<text xml:space="preserve" transform="matrix(.0300135 -.0006285 .0006285 .0300135 366.11616 464.6347)" font-size="327.68" font-family="F2"><tspan y="0" x="504.6272"> </tspan></text>
<text xml:space="preserve" transform="matrix(.0300135 -.0006285 .0006285 .0300135 366.11616 464.6347)" font-size="327.68" font-family="F2"><tspan y="0" x="619.3152">R</tspan></text>
<text xml:space="preserve" transform="matrix(.0300135 -.0006285 .0006285 .0300135 366.11616 464.6347)" font-size="327.68" font-family="F2"><tspan y="3.2768" x="848.69119">O</tspan></text>
<text xml:space="preserve" transform="matrix(.0300135 -.0006285 .0006285 .0300135 366.11616 464.6347)" font-size="327.68" font-family="F2"><tspan y="0" x="1107.5584">A</tspan></text>
<text xml:space="preserve" transform="matrix(.0300135 -.0006285 .0006285 .0300135 366.11616 464.6347)" font-size="327.68" font-family="F2"><tspan y="0" x="1327.104">D</tspan></text>
<text xml:space="preserve" transform="matrix(.0300135 -.0006285 .0006285 .0300135 366.11326 549.9555)" font-size="327.68" font-family="F2"><tspan y="0" x="0">3</tspan></text>
<text xml:space="preserve" transform="matrix(.0300135 -.0006285 .0006285 .0300135 366.11326 549.9555)" font-size="327.68" font-family="F2"><tspan y="0" x="206.4384">3</tspan></text>
<text xml:space="preserve" transform="matrix(.0300135 -.0006285 .0006285 .0300135 366.11326 549.9555)" font-size="327.68" font-family="F2"><tspan y="0" x="416.1536">'</tspan></text>
<text xml:space="preserve" transform="matrix(.0300135 -.0006285 .0006285 .0300135 366.11326 549.9555)" font-size="327.68" font-family="F2"><tspan y="0" x="504.6272"> </tspan></text>
<text xml:space="preserve" transform="matrix(.0300135 -.0006285 .0006285 .0300135 366.11326 549.9555)" font-size="327.68" font-family="F2"><tspan y="0" x="619.3152">R</tspan></text>
<text xml:space="preserve" transform="matrix(.0300135 -.0006285 .0006285 .0300135 366.11326 549.9555)" font-size="327.68" font-family="F2"><tspan y="3.2768" x="848.69119">O</tspan></text>
<text xml:space="preserve" transform="matrix(.0300135 -.0006285 .0006285 .0300135 366.11326 549.9555)" font-size="327.68" font-family="F2"><tspan y="0" x="1107.5584">A</tspan></text>
<text xml:space="preserve" transform="matrix(.0300135 -.0006285 .0006285 .0300135 366.11326 549.9555)" font-size="327.68" font-family="F2"><tspan y="0" x="1327.104">D</tspan></text>
<text xml:space="preserve" transform="matrix(.0300135 -.0006285 .0006285 .0300135 366.1119 637.07498)" font-size="327.68" font-family="F2"><tspan y="0" x="0">3</tspan></text>
<text xml:space="preserve" transform="matrix(.0300135 -.0006285 .0006285 .0300135 366.1119 637.07498)" font-size="327.68" font-family="F2"><tspan y="0" x="206.4384">3</tspan></text>
<text xml:space="preserve" transform="matrix(.0300135 -.0006285 .0006285 .0300135 366.1119 637.07498)" font-size="327.68" font-family="F2"><tspan y="0" x="416.1536">'</tspan></text>
<text xml:space="preserve" transform="matrix(.0300135 -.0006285 .0006285 .0300135 366.1119 637.07498)" font-size="327.68" font-family="F2"><tspan y="0" x="504.6272"> </tspan></text>
<text xml:space="preserve" transform="matrix(.0300135 -.0006285 .0006285 .0300135 366.1119 637.07498)" font-size="327.68" font-family="F2"><tspan y="0" x="619.3152">R</tspan></text>
<text xml:space="preserve" transform="matrix(.0300135 -.0006285 .0006285 .0300135 366.1119 637.07498)" font-size="327.68" font-family="F2"><tspan y="3.2768" x="848.69119">O</tspan></text>
<text xml:space="preserve" transform="matrix(.0300135 -.0006285 .0006285 .0300135 366.1119 637.07498)" font-size="327.68" font-family="F2"><tspan y="0" x="1107.5584">A</tspan></text>
<text xml:space="preserve" transform="matrix(.0300135 -.0006285 .0006285 .0300135 366.1119 637.07498)" font-size="327.68" font-family="F2"><tspan y="0" x="1327.104">D</tspan></text>
<text fill="#dcdcdc" xml:space="preserve" transform="matrix(.02995875 -.0019372501 .0019372501 .02995875 280.91838 176.88025)" font-size="327.68" font-family="F2"><tspan y="0" x="0">S</tspan></text>
<text fill="#dcdcdc" xml:space="preserve" transform="matrix(.02995875 -.0019372501 .0019372501 .02995875 280.91838 176.88025)" font-size="327.68" font-family="F2"><tspan y="0" x="226.0992">C</tspan></text>
<text fill="#dcdcdc" xml:space="preserve" transform="matrix(.02995875 -.0019372501 .0019372501 .02995875 280.91838 176.88025)" font-size="327.68" font-family="F2"><tspan y="0" x="452.1984">H</tspan></text>
<text fill="#dcdcdc" xml:space="preserve" transform="matrix(.02995875 -.0019372501 .0019372501 .02995875 280.91838 176.88025)" font-size="327.68" font-family="F2"><tspan y="0" x="701.23519">O</tspan></text>
<text fill="#dcdcdc" xml:space="preserve" transform="matrix(.02995875 -.0019372501 .0019372501 .02995875 280.91838 176.88025)" font-size="327.68" font-family="F2"><tspan y="3.2768" x="956.82559">O</tspan></text>
<text fill="#dcdcdc" xml:space="preserve" transform="matrix(.02995875 -.0019372501 .0019372501 .02995875 280.91838 176.88025)" font-size="327.68" font-family="F2"><tspan y="-3.2768" x="1209.1392">L</tspan></text>
<path transform="matrix(.75,0,0,.75,0,0)" stroke-width=".96" stroke-linecap="round" stroke-linejoin="round" fill="none" stroke="#000000" d="M320.96 373.92H621.28M621.28 400.32V398.56M621.28 373.92V319.2"/>
<text xml:space="preserve" transform="matrix(0 .03222675 -.03222675 0 0 0)" font-size="327.68" font-family="F1"><tspan y="-13047.7" x="9711.2 9875.04">10</tspan></text>
<text fill="#ff00ff" xml:space="preserve" transform="matrix(0 .03222675 -.03222675 0 0 0)" font-size="327.68" font-family="F1"><tspan y="-10254.9" x="14768">5</tspan></text>
<path transform="matrix(.75,0,0,.75,0,0)" stroke-width=".96" stroke-linecap="round" stroke-linejoin="round" fill="none" stroke="#000000" d="M320.96 319.2H244.64"/>
<path transform="matrix(.75,0,0,.75,0,0)" stroke-width=".96" stroke-linecap="round" stroke-linejoin="round" fill="none" stroke="#dcdcdc" d="M317.92 282.08H241.76M314.72 244.96H238.88"/>
<path transform="matrix(.75,0,0,.75,0,0)" stroke-width=".96" stroke-linecap="round" stroke-linejoin="round" fill="none" stroke="#989898" d="M276.48 373.92V319.2M298.72 373.92V319.2"/>
<path transform="matrix(.75,0,0,.75,0,0)" stroke-width=".96" stroke-linecap="round" stroke-linejoin="round" fill="none" stroke="#000000" d="M206.24 217.6H162.72"/>
<path transform="matrix(.75,0,0,.75,156.48,185.4)" stroke-width=".96" stroke-linecap="round" stroke-linejoin="round" fill="none" stroke="#dcdcdc" d="M0 0H-43.52M1.92 24.64H-41.6M3.84 49.12H-39.68M5.76 73.6H-37.76M7.68 98.24H-35.84"/>
<path transform="matrix(.75,0,0,.75,0,0)" stroke-width=".96" stroke-linecap="round" stroke-linejoin="round" fill="none" stroke="#989898" d="M235.84 214.56 311.52 208 320.96 319.2H244.64L235.84 214.56Z"/>
<path transform="matrix(.75,0,0,.75,0,0)" stroke-width=".96" stroke-linecap="round" stroke-linejoin="round" fill="none" stroke="#989898" d="M215.84 338.88 236.48 373.92"/>
<path transform="matrix(.75,0,0,.75,0,0)" stroke-width=".96" stroke-linecap="round" stroke-linejoin="round" fill="none" stroke="#000000" d="M250.88 398.56 303.36 487.68"/>
<path transform="matrix(.75,0,0,.75,0,0)" stroke-width=".96" stroke-linecap="round" stroke-linejoin="round" fill="none" stroke="#989898" d="M244.64 319.2 245.6 330.72"/>
<text fill="#989898" xml:space="preserve" transform="matrix(.002826 .029893499 -.029893499 .002826 162.8399 164.2813)" font-size="327.68" font-family="F2"><tspan y="0" x="0">A</tspan></text>
<text fill="#989898" xml:space="preserve" transform="matrix(.002826 .029893499 -.029893499 .002826 162.8399 164.2813)" font-size="327.68" font-family="F2"><tspan y="0" x="226.0992">P</tspan></text>
<text fill="#989898" xml:space="preserve" transform="matrix(.002826 .029893499 -.029893499 .002826 162.8399 164.2813)" font-size="327.68" font-family="F2"><tspan y="0" x="425.984">P</tspan></text>
<text fill="#989898" xml:space="preserve" transform="matrix(.002826 .029893499 -.029893499 .002826 162.8399 164.2813)" font-size="327.68" font-family="F2"><tspan y="0" x="622.59207">R</tspan></text>
<text fill="#989898" xml:space="preserve" transform="matrix(.002826 .029893499 -.029893499 .002826 162.8399 164.2813)" font-size="327.68" font-family="F2"><tspan y="0" x="851.968">O</tspan></text>
<text fill="#989898" xml:space="preserve" transform="matrix(.002826 .029893499 -.029893499 .002826 162.8399 164.2813)" font-size="327.68" font-family="F2"><tspan y="0" x="1110.8352">A</tspan></text>
<text fill="#989898" xml:space="preserve" transform="matrix(.002826 .029893499 -.029893499 .002826 162.8399 164.2813)" font-size="327.68" font-family="F2"><tspan y="3.2768" x="1336.9345">C</tspan></text>
<text fill="#989898" xml:space="preserve" transform="matrix(.002826 .029893499 -.029893499 .002826 162.8399 164.2813)" font-size="327.68" font-family="F2"><tspan y="0" x="1566.3104">H</tspan></text>
<text fill="#989898" xml:space="preserve" transform="matrix(.002826 .029893499 -.029893499 .002826 162.8399 164.2813)" font-size="327.68" font-family="F2"><tspan y="0" x="1815.3472"> </tspan></text>
<text fill="#989898" xml:space="preserve" transform="matrix(.002826 .029893499 -.029893499 .002826 162.8399 164.2813)" font-size="327.68" font-family="F2"><tspan y="3.2768" x="1930.0352">-</tspan></text>
<text fill="#989898" xml:space="preserve" transform="matrix(.002826 .029893499 -.029893499 .002826 162.8399 164.2813)" font-size="327.68" font-family="F2"><tspan y="0" x="2084.0447"> </tspan></text>
<text fill="#989898" xml:space="preserve" transform="matrix(.002826 .029893499 -.029893499 .002826 162.8399 164.2813)" font-size="327.68" font-family="F2"><tspan y="0" x="2198.7327">4</tspan></text>
<text fill="#989898" xml:space="preserve" transform="matrix(.002826 .029893499 -.029893499 .002826 162.8399 164.2813)" font-size="327.68" font-family="F2"><tspan y="0" x="2405.1712">0</tspan></text>
<text fill="#989898" xml:space="preserve" transform="matrix(.002826 .029893499 -.029893499 .002826 162.8399 164.2813)" font-size="327.68" font-family="F2"><tspan y="3.2768" x="2608.3328"> </tspan></text>
<text fill="#989898" xml:space="preserve" transform="matrix(.002826 .029893499 -.029893499 .002826 162.8399 164.2813)" font-size="327.68" font-family="F2"><tspan y="0" x="2723.0208">'</tspan></text>
<text fill="#989898" xml:space="preserve" transform="matrix(.002826 .029893499 -.029893499 .002826 162.8399 164.2813)" font-size="327.68" font-family="F2"><tspan y="0" x="2804.9407"> </tspan></text>
<text fill="#989898" xml:space="preserve" transform="matrix(.002826 .029893499 -.029893499 .002826 162.8399 164.2813)" font-size="327.68" font-family="F2"><tspan y="0" x="2919.6287">R</tspan></text>
<text fill="#989898" xml:space="preserve" transform="matrix(.002826 .029893499 -.029893499 .002826 162.8399 164.2813)" font-size="327.68" font-family="F2"><tspan y="0" x="3142.4512">O</tspan></text>
<text fill="#989898" xml:space="preserve" transform="matrix(.002826 .029893499 -.029893499 .002826 162.8399 164.2813)" font-size="327.68" font-family="F2"><tspan y="0" x="3394.7647">A</tspan></text>
<text fill="#989898" xml:space="preserve" transform="matrix(.002826 .029893499 -.029893499 .002826 162.8399 164.2813)" font-size="327.68" font-family="F2"><tspan y="0" x="3617.587">D</tspan></text>
</svg>
